<svg width="53" height="52" viewBox="0 0 53 52" fill="none" xmlns="http://www.w3.org/2000/svg">
<rect opacity="0.2" x="0.96875" width="52" height="52" fill="white"/>
<path d="M27.8238 21.9687V26.0312L29.8238 27.9999" stroke="black" stroke-width="1.5"/>
<path d="M16.644 24.7029L18.941 27L21.2381 24.7029" stroke="black" stroke-width="1.5"/>
<path d="M21.4599 32.364C22.9323 33.8363 24.8696 34.7526 26.9417 34.9567C29.0139 35.1608 31.0927 34.64 32.824 33.4832C34.5553 32.3264 35.8319 30.6051 36.4364 28.6126C37.0408 26.62 36.9356 24.4795 36.1388 22.5558C35.342 20.6321 33.9028 19.0442 32.0665 18.0627C30.2301 17.0812 28.1103 16.7667 26.0681 17.1729C24.0259 17.5791 22.1877 18.6809 20.8668 20.2905C19.5459 21.9 18.8239 23.9178 18.8239 26" stroke="black" stroke-width="1.5"/>
</svg>
