<svg width="53" height="52" viewBox="0 0 53 52" fill="none" xmlns="http://www.w3.org/2000/svg">
<rect opacity="0.2" x="0.96875" width="52" height="52" fill="white"/>
<path d="M26.395 20.2329L26.9688 20.9145L27.5425 20.2329C28.0593 19.619 28.6998 18.9846 29.3974 18.5092C30.1003 18.0302 30.8055 17.75 31.4688 17.75C34.1265 17.75 36.2188 19.8541 36.2188 22.5638C36.2188 24.1717 35.1875 25.9144 33.3452 27.9396C31.9447 29.4791 30.1748 31.0804 28.2513 32.8207C27.8305 33.2013 27.4024 33.5886 26.9693 33.9834C26.519 33.5722 26.0742 33.1693 25.6375 32.7737C23.7327 31.0482 21.981 29.4615 20.5921 27.9356C18.7497 25.9116 17.7188 24.1715 17.7188 22.5638C17.7188 19.8541 19.811 17.75 22.4687 17.75C23.132 17.75 23.8372 18.0302 24.5401 18.5092C25.2377 18.9846 25.8782 19.619 26.395 20.2329Z" stroke="black" stroke-width="1.5"/>
</svg>
