<svg width="60" height="61" viewBox="0 0 60 61" fill="none" xmlns="http://www.w3.org/2000/svg">
<rect y="0.5" width="60" height="60" fill="white"/>
<path d="M29.4262 23.4831L30 24.1647L30.5738 23.4831C31.1996 22.7397 31.9781 21.9678 32.8299 21.3872C33.687 20.8031 34.5627 20.4502 35.4001 20.4502C38.6737 20.4502 41.25 23.0439 41.25 26.3767C41.25 28.3671 39.9762 30.4953 37.7627 32.9286C36.0768 34.782 33.9452 36.7104 31.6356 38.7999C31.0991 39.2854 30.5529 39.7795 30.0005 40.2833C29.4277 39.7598 28.8616 39.247 28.306 38.7437C26.0188 36.6718 23.9091 34.7608 22.2371 32.9239C20.0235 30.492 18.75 28.3668 18.75 26.3767C18.75 23.0439 21.3263 20.4502 24.5999 20.4502C25.4373 20.4502 26.313 20.8031 27.1701 21.3872C28.0219 21.9678 28.8004 22.7397 29.4262 23.4831Z" stroke="#C1C1C1" stroke-width="1.5"/>
</svg>
