<svg width="60" height="60" viewBox="0 0 60 60" fill="none" xmlns="http://www.w3.org/2000/svg">
<rect x="0.5" y="0.5" width="59" height="59" fill="white" stroke="white"/>
<path fill-rule="evenodd" clip-rule="evenodd" d="M36.2268 29.1096C36.2268 33.0403 33.0403 36.2268 29.1096 36.2268C25.1788 36.2268 21.9923 33.0403 21.9923 29.1096C21.9923 25.1788 25.1788 21.9923 29.1096 21.9923C33.0403 21.9923 36.2268 25.1788 36.2268 29.1096ZM34.8106 36.2249C33.2493 37.4775 31.267 38.2268 29.1096 38.2268C24.0742 38.2268 19.9923 34.1449 19.9923 29.1096C19.9923 24.0742 24.0742 19.9923 29.1096 19.9923C34.1449 19.9923 38.2268 24.0742 38.2268 29.1096C38.2268 31.267 37.4775 33.2493 36.2249 34.8107L40.0077 38.5935L38.5935 40.0077L34.8106 36.2249Z" fill="#333333"/>
</svg>
