<svg width="117" height="60" viewBox="0 0 117 60" fill="none" xmlns="http://www.w3.org/2000/svg">
<rect x="0.635414" width="116" height="60" fill="white"/>
<path d="M23.4296 22.5657V34.8042H31.0554V37.3893H20.6354V22.5657H23.4296Z" fill="#333333"/>
<path d="M52.6563 30.0634C52.6154 33.8961 50.263 37.7288 45.051 37.7288C39.8389 37.7288 37.4252 33.982 37.4252 30.0839C37.4252 26.1898 39.9249 22.2712 45.051 22.2712C50.1566 22.2712 52.6972 26.1898 52.6563 30.0634ZM40.1785 30.1288C40.244 32.5626 41.5531 35.1682 45.051 35.1682C48.5448 35.1682 49.858 32.5422 49.903 30.1084C49.9439 27.6092 48.5489 24.8154 45.051 24.8154C41.5572 24.8113 40.1171 27.6296 40.1785 30.1288Z" fill="#333333"/>
<path d="M68.5133 28.0509L65.1668 37.3893H62.794L57.3529 22.5657H60.4866L63.9804 33.258L67.5806 22.5657H69.4011L73.1076 33.258L76.495 22.5657H79.6288L74.2899 37.3893H71.9171L68.5133 28.0509Z" fill="#333333"/>
<path d="M96.6354 37.3934H85.5363C85.5363 32.4604 85.5363 27.5028 85.5363 22.5698H96.6354V25.2817H88.3101V28.6931H96.3368V31.2987H88.3101V34.6447H96.6354V37.3934Z" fill="#333333"/>
</svg>
