<svg width="37" height="36" viewBox="0 0 37 36" fill="none" xmlns="http://www.w3.org/2000/svg">
<g filter="url(#filter0_d_137_586)">
<path d="M18.3977 12.9257L18.9688 13.5963L19.5398 12.9257C20.0018 12.3832 20.573 11.8242 21.1934 11.4062C21.8189 10.9848 22.4401 10.7429 23.0188 10.7429C25.3766 10.7429 27.2188 12.5851 27.2188 14.9429C27.2188 16.3367 26.3125 17.8657 24.655 19.6668C23.3974 21.0334 21.8085 22.4545 20.078 24.0021C19.7141 24.3276 19.3439 24.6587 18.9693 24.996C18.5791 24.6441 18.1939 24.2991 17.8155 23.9603C16.102 22.4258 14.5295 21.0177 13.2824 19.6633C11.6248 17.8631 10.7188 16.3365 10.7188 14.9429C10.7188 12.5851 12.5609 10.7429 14.9187 10.7429C15.4974 10.7429 16.1186 10.9848 16.7441 11.4062C17.3645 11.8242 17.9357 12.3832 18.3977 12.9257Z" stroke="white" stroke-width="1.5" shape-rendering="crispEdges"/>
</g>
<defs>
<filter id="filter0_d_137_586" x="5.96875" y="5.99292" width="26" height="24.0143" filterUnits="userSpaceOnUse" color-interpolation-filters="sRGB">
<feFlood flood-opacity="0" result="BackgroundImageFix"/>
<feColorMatrix in="SourceAlpha" type="matrix" values="0 0 0 0 0 0 0 0 0 0 0 0 0 0 0 0 0 0 127 0" result="hardAlpha"/>
<feOffset/>
<feGaussianBlur stdDeviation="2"/>
<feComposite in2="hardAlpha" operator="out"/>
<feColorMatrix type="matrix" values="0 0 0 0 0 0 0 0 0 0 0 0 0 0 0 0 0 0 0.5 0"/>
<feBlend mode="normal" in2="BackgroundImageFix" result="effect1_dropShadow_137_586"/>
<feBlend mode="normal" in="SourceGraphic" in2="effect1_dropShadow_137_586" result="shape"/>
</filter>
</defs>
</svg>
