<svg width="76" height="60" viewBox="0 0 76 60" fill="none" xmlns="http://www.w3.org/2000/svg">
<rect width="76" height="60" fill="white"/>
<path d="M2.79421 22.5657V34.8042H10.42V37.3893H3.8147e-06V22.5657H2.79421Z" fill="#333333"/>
<path d="M32.0209 30.0635C31.98 33.8962 29.6276 37.7289 24.4156 37.7289C19.2035 37.7289 16.7898 33.9821 16.7898 30.0839C16.7898 26.1898 19.2894 22.2712 24.4156 22.2712C29.5212 22.2712 32.0618 26.1898 32.0209 30.0635ZM19.5431 30.1289C19.6085 32.5627 20.9177 35.1683 24.4156 35.1683C27.9094 35.1683 29.2226 32.5422 29.2676 30.1085C29.3085 27.6092 27.9134 24.8155 24.4156 24.8155C20.9218 24.8114 19.4817 27.6297 19.5431 30.1289Z" fill="#333333"/>
<path d="M47.8779 28.0509L44.5314 37.3893H42.1586L36.7174 22.5657H39.8512L43.345 33.258L46.9451 22.5657H48.7657L52.4722 33.258L55.8596 22.5657H58.9934L53.6545 37.3893H51.2817L47.8779 28.0509Z" fill="#333333"/>
<path d="M76 37.3934H64.9009C64.9009 32.4604 64.9009 27.5028 64.9009 22.5698H76V25.2818H67.6747V28.6932H75.7014V31.2987H67.6747V34.6447H76V37.3934Z" fill="#333333"/>
</svg>
