<svg width="80" height="81" viewBox="0 0 80 81" fill="none" xmlns="http://www.w3.org/2000/svg">
<rect y="0.00195312" width="80" height="80" fill="white"/>
<path d="M39.235 27.1444L40 28.0532L40.765 27.1444C42.1444 25.5058 43.8724 23.7891 45.7795 22.4894C47.6936 21.1849 49.7137 20.3506 51.7001 20.3506C59.145 20.3506 65 26.2569 65 33.8164C65 38.3821 62.0891 43.1478 57.2815 48.4328C53.6062 52.4731 48.956 56.68 43.9463 61.2122C42.6516 62.3835 41.3328 63.5766 40.0007 64.7941C38.6248 63.534 37.2632 62.3007 35.9276 61.0908C30.9658 56.5963 26.3631 52.4269 22.7183 48.4227C17.9105 43.1409 15 38.3818 15 33.8164C15 26.2569 20.855 20.3506 28.2999 20.3506C30.2863 20.3506 32.3064 21.1849 34.2205 22.4894C36.1276 23.7891 37.8556 25.5058 39.235 27.1444Z" stroke="#ADADAD" stroke-width="2"/>
<path d="M63.0114 16.8281L37.8316 40.4477L48.0171 39.1094L24.6967 62.1347" stroke="#ADADAD" stroke-width="2"/>
</svg>
